<svg xmlns="http://www.w3.org/2000/svg" width="25" height="16" viewBox="0 0 25 16">
    <g>
        <path d="M12.878 11.142c0-1.965-.915-3.418-2.807-3.962 1.38-.671 2.1-1.688 2.1-3.269C12.17.794 9.887.033 7.253.033H0v15.654h7.456c2.796 0 5.422-1.365 5.422-4.545zM3.381 2.705h3.173c1.22 0 2.318.35 2.318 1.789 0 1.33-.854 1.864-2.063 1.864H3.381V2.705zm0 10.323v-4.31h3.685c1.488 0 2.43.631 2.43 2.235 0 1.58-1.124 2.075-2.5 2.075H3.38zM19.58 15.983c2.66 0 4.383-1.22 5.212-3.812h-2.7c-.291.968-1.489 1.48-2.418 1.48-1.793 0-2.734-1.07-2.734-2.885h8.034c.254-3.635-1.73-6.732-5.396-6.732-3.395 0-5.699 2.596-5.699 5.998 0 3.53 2.184 5.951 5.7 5.951zm-.097-9.597c1.537 0 2.31.918 2.439 2.42h-4.978c.1-1.489 1.073-2.42 2.54-2.42zM16.32.855L22.557.855 22.557 2.397 16.32 2.397z"/>
    </g>
</svg>
