<svg xmlns="http://www.w3.org/2000/svg" width="24" height="24" viewBox="0 0 24 24">
    <path d="M11.994.016C5.381.016 0 5.39 0 11.994 0 18.6 5.38 23.973 11.994 23.973s11.994-5.374 11.995-11.979C23.989 5.39 18.608.016 11.994.016zm7.892 5.654c1.368 1.695 2.2 3.837 2.239 6.17-.456-.093-2.384-.453-4.688-.453-.744 0-1.526.037-2.31.134-.066-.16-.133-.322-.202-.484-.204-.478-.423-.953-.65-1.42 3.545-1.46 5.257-3.488 5.61-3.947zm-7.892-3.78c2.556 0 4.892.95 6.676 2.515-.283.385-1.814 2.3-5.233 3.592-1.582-2.894-3.316-5.289-3.728-5.845.735-.17 1.5-.261 2.285-.261zm-4.352.984c.349.48 2.083 2.9 3.707 5.772-4.357 1.145-8.225 1.22-9.159 1.22h-.099c.67-3.092 2.76-5.66 5.55-6.992zm-5.78 9.136c0-.083.001-.167.004-.25l.265.002c1.257 0 5.622-.105 10.12-1.44.273.535.533 1.077.774 1.618-.112.033-.225.066-.336.102-5.064 1.636-7.849 5.965-8.277 6.673-1.586-1.788-2.55-4.135-2.55-6.705zm10.132 10.12c-2.325 0-4.468-.788-6.18-2.107.29-.568 2.39-4.351 7.94-6.283l.012-.004c1.39 3.624 1.98 6.665 2.143 7.607-1.205.506-2.528.786-3.915.786zm5.739-1.785c-.136-.78-.682-3.63-1.942-7.105.707-.11 1.395-.153 2.04-.153 2.117 0 3.774.463 4.16.58-.459 2.762-2.04 5.15-4.258 6.678z"/>
</svg>
